<?xml version="1.0" encoding="utf-8"?>
<!-- Generator: Adobe Illustrator 15.1.0, SVG Export Plug-In . SVG Version: 6.00 Build 0)  -->
<!DOCTYPE svg PUBLIC "-//W3C//DTD SVG 1.1//EN" "http://www.w3.org/Graphics/SVG/1.1/DTD/svg11.dtd">
<svg version="1.1" id="Layer_1" xmlns="http://www.w3.org/2000/svg" xmlns:xlink="http://www.w3.org/1999/xlink" x="0px" y="0px"
	 width="608.049px" height="176.917px" viewBox="0 0 608.049 176.917" enable-background="new 0 0 608.049 176.917"
	 xml:space="preserve">
<g>
	<g>
		<path fill="#231F20" d="M411.615,30.302H356.35c-16.912,0-30.669,13.759-30.669,30.672v23.42
			c0,16.913,13.757,30.674,30.669,30.674h55.266c16.915,0,30.676-13.761,30.676-30.674v-23.42
			C442.291,44.062,428.53,30.302,411.615,30.302z M422.603,95.699H356.35c-6.054,0-10.982-4.929-10.982-10.986V49.985h66.248
			c6.059,0,10.987,4.928,10.987,10.989V95.699z"/>
		<polygon fill="#231F20" points="220.62,115.068 240.309,115.068 240.309,84.531 304.938,84.531 304.938,67.297 240.309,67.297 
			240.309,49.99 314.64,49.99 314.64,30.303 220.62,30.303 		"/>
		<polygon fill="#231F20" points="585.076,30.303 555.261,95.528 525.443,30.303 503.833,30.303 516.887,58.381 498.071,99.311 
			493.333,88.955 493.024,88.244 466.522,30.261 444.896,30.261 484.356,115.152 508.326,115.152 525.853,77.668 543.276,115.152 
			567.245,115.152 606.689,30.303 		"/>
	</g>
	<g>
		<path fill="#B56CB5" d="M83.7,126.835l10.59,36.831c0.182,0.642,0.456,1.213,0.795,1.696c0.335,0.491,0.738,0.893,1.18,1.19
			c0.443,0.297,0.924,0.487,1.417,0.551c0.492,0.066,1,0.004,1.486-0.205l3.109-1.322c0.493-0.212,0.918-0.546,1.268-0.971
			c0.35-0.426,0.619-0.945,0.798-1.511c0.181-0.569,0.268-1.191,0.259-1.831c-0.01-0.639-0.119-1.295-0.339-1.93l-12.506-36.582
			c-0.04-0.116-0.098-0.217-0.146-0.323c-2.634,1.524-5.29,2.928-7.957,4.166C83.67,126.676,83.676,126.756,83.7,126.835z"/>
		<path fill="#B56CB5" d="M71.918,131.094c0.002,0.025,0,0.05,0.002,0.077l3.736,37.858c0.064,0.652,0.216,1.252,0.44,1.781
			c0.222,0.529,0.517,0.99,0.861,1.359c0.346,0.367,0.742,0.638,1.169,0.793c0.432,0.158,0.89,0.191,1.353,0.082l2.974-0.676
			c0.036-0.01,0.076-0.021,0.112-0.031c0.039-0.009,0.078-0.023,0.114-0.033c0.038-0.012,0.074-0.027,0.108-0.039
			c0.039-0.017,0.075-0.029,0.113-0.044c0.409-0.178,0.785-0.458,1.107-0.819c0.324-0.358,0.598-0.798,0.806-1.291
			c0.21-0.494,0.358-1.039,0.43-1.613c0.071-0.572,0.071-1.176-0.014-1.781l-5.398-38.246c-0.008-0.066-0.032-0.125-0.044-0.193
			c-1.768,0.729-3.534,1.404-5.296,2.002C73.632,130.569,72.776,130.836,71.918,131.094z"/>
		<path fill="#B56CB5" d="M58.525,170.682c-0.04,0.627,0.006,1.222,0.124,1.766c0.117,0.545,0.307,1.032,0.552,1.445
			c0.247,0.408,0.55,0.74,0.897,0.967c0.35,0.227,0.745,0.348,1.162,0.334l2.685-0.087c0.07-0.003,0.138-0.007,0.209-0.019
			c0.067-0.007,0.137-0.018,0.204-0.037c0.069-0.016,0.137-0.036,0.202-0.057c0.066-0.022,0.134-0.047,0.199-0.076
			c0.338-0.146,0.657-0.377,0.945-0.675c0.29-0.294,0.55-0.655,0.77-1.067c0.218-0.41,0.394-0.869,0.519-1.359
			c0.127-0.492,0.203-1.016,0.215-1.557l0.999-38.127c0-0.004-0.002-0.009,0-0.012c-2.511,0.624-4.996,1.096-7.444,1.428
			L58.525,170.682z"/>
		<path fill="#B56CB5" d="M50.976,134.099c-0.133-0.003-0.262-0.019-0.393-0.023l-7.02,35.011c-0.118,0.58-0.157,1.15-0.134,1.68
			c0.027,0.533,0.122,1.023,0.279,1.456c0.153,0.431,0.366,0.796,0.632,1.073c0.267,0.273,0.586,0.459,0.944,0.525l2.305,0.414
			c0.089,0.016,0.182,0.028,0.272,0.028c0.092,0,0.182-0.007,0.271-0.02c0.094-0.015,0.183-0.034,0.271-0.062
			c0.089-0.024,0.181-0.061,0.269-0.1c0.276-0.124,0.541-0.311,0.79-0.547c0.253-0.234,0.486-0.524,0.697-0.854
			c0.207-0.33,0.391-0.702,0.544-1.105c0.152-0.402,0.272-0.833,0.348-1.289l6.271-36.357
			C55.169,134.103,53.046,134.168,50.976,134.099z"/>
		<path fill="#B56CB5" d="M31.102,164.879c-0.17,0.518-0.277,1.044-0.321,1.542c-0.05,0.501-0.03,0.98,0.046,1.407
			c0.074,0.433,0.205,0.813,0.396,1.117c0.188,0.309,0.432,0.535,0.725,0.663l1.885,0.804c0.099,0.044,0.201,0.075,0.303,0.096
			c0.106,0.014,0.212,0.021,0.317,0.014c0.105-0.007,0.212-0.025,0.321-0.051c0.104-0.031,0.215-0.072,0.321-0.123
			c0.22-0.103,0.439-0.25,0.647-0.437c0.21-0.184,0.413-0.408,0.604-0.665c0.189-0.257,0.362-0.547,0.521-0.865
			c0.153-0.318,0.291-0.661,0.403-1.027l10.245-33.51c-2.015-0.211-3.971-0.555-5.863-1.022L31.102,164.879z"/>
		<path fill="#B56CB5" d="M21.192,158.721c-0.206,0.457-0.357,0.927-0.458,1.389c-0.095,0.461-0.142,0.908-0.13,1.322
			c0.009,0.414,0.074,0.793,0.194,1.111c0.118,0.318,0.294,0.574,0.523,0.746l1.469,1.086c0.098,0.07,0.202,0.126,0.31,0.16
			c0.107,0.039,0.218,0.057,0.331,0.061c0.118,0.002,0.236-0.01,0.357-0.039c0.119-0.029,0.243-0.076,0.361-0.135
			c0.175-0.087,0.349-0.201,0.521-0.344c0.172-0.145,0.341-0.313,0.504-0.508c0.16-0.195,0.315-0.414,0.461-0.655
			c0.146-0.241,0.284-0.503,0.405-0.786l12.979-30.053c-1.696-0.551-3.336-1.211-4.904-1.987L21.192,158.721z"/>
		<path fill="#B56CB5" d="M28.017,126.173l-14.321,25.051c-0.225,0.396-0.407,0.811-0.541,1.226
			c-0.138,0.412-0.226,0.825-0.265,1.215c-0.039,0.389-0.032,0.754,0.029,1.072s0.177,0.586,0.349,0.785l1.085,1.271
			c0.089,0.103,0.185,0.183,0.291,0.237c0.103,0.059,0.217,0.09,0.337,0.104c0.117,0.012,0.241,0.004,0.371-0.027
			c0.129-0.023,0.26-0.078,0.396-0.146s0.269-0.158,0.408-0.267c0.133-0.105,0.271-0.23,0.401-0.376
			c0.136-0.142,0.266-0.303,0.394-0.479c0.127-0.176,0.247-0.367,0.364-0.576l14.638-26.348c-0.236-0.139-0.479-0.265-0.711-0.408
			C30.095,127.788,29.029,127,28.017,126.173z"/>
		<path fill="#B56CB5" d="M23.312,121.359l-14.95,21.539c-0.231,0.334-0.428,0.692-0.588,1.059
			c-0.159,0.369-0.278,0.742-0.356,1.099c-0.078,0.361-0.11,0.704-0.098,1.015c0.013,0.309,0.076,0.584,0.194,0.799l0.751,1.376
			c0.07,0.13,0.154,0.229,0.254,0.306c0.098,0.076,0.205,0.121,0.325,0.146c0.119,0.021,0.247,0.02,0.382-0.011
			c0.135-0.029,0.276-0.079,0.419-0.158c0.104-0.055,0.206-0.123,0.312-0.201c0.104-0.078,0.21-0.168,0.313-0.271
			c0.106-0.102,0.209-0.215,0.314-0.338c0.103-0.125,0.205-0.26,0.303-0.405l15.425-22.64
			C25.221,123.632,24.221,122.528,23.312,121.359z"/>
		<path fill="#B56CB5" d="M4.905,134.134c-0.229,0.276-0.434,0.585-0.606,0.906c-0.175,0.323-0.317,0.655-0.417,0.98
			c-0.105,0.33-0.172,0.649-0.195,0.942c-0.022,0.298,0,0.566,0.066,0.787l0.468,1.426c0.051,0.152,0.119,0.278,0.202,0.368
			c0.088,0.093,0.193,0.153,0.309,0.185c0.117,0.033,0.246,0.037,0.384,0.008c0.136-0.03,0.286-0.084,0.439-0.172
			c0.074-0.041,0.152-0.09,0.229-0.146c0.077-0.057,0.154-0.121,0.232-0.188c0.079-0.07,0.156-0.146,0.236-0.229
			c0.078-0.083,0.157-0.173,0.236-0.269l15.56-19.12c-0.794-1.187-1.507-2.425-2.133-3.718L4.905,134.134z"/>
		<path fill="#B56CB5" d="M3.038,125.216c-0.223,0.229-0.426,0.491-0.606,0.772c-0.179,0.279-0.333,0.573-0.456,0.867
			c-0.12,0.298-0.214,0.592-0.264,0.869c-0.054,0.275-0.066,0.535-0.031,0.763l0.222,1.431c0.028,0.171,0.081,0.313,0.152,0.42
			c0.076,0.104,0.169,0.182,0.283,0.223c0.109,0.04,0.239,0.047,0.378,0.02c0.142-0.027,0.294-0.085,0.454-0.18
			c0.055-0.03,0.106-0.064,0.159-0.101c0.057-0.04,0.108-0.081,0.165-0.127c0.052-0.044,0.107-0.093,0.166-0.142
			c0.056-0.052,0.112-0.107,0.17-0.168l15.227-15.886c-0.522-1.284-0.975-2.614-1.346-3.985L3.038,125.216z"/>
		<path fill="#B56CB5" d="M2.492,116.355c-0.209,0.187-0.409,0.406-0.588,0.648c-0.182,0.239-0.342,0.501-0.477,0.766
			c-0.135,0.264-0.245,0.533-0.317,0.791c-0.074,0.258-0.113,0.506-0.11,0.727l0.024,1.412c0.003,0.188,0.038,0.344,0.097,0.463
			c0.06,0.121,0.146,0.205,0.249,0.252c0.107,0.049,0.233,0.063,0.375,0.039c0.143-0.029,0.303-0.09,0.471-0.192
			c0.031-0.019,0.066-0.042,0.102-0.063c0.031-0.021,0.065-0.047,0.1-0.074c0.034-0.023,0.069-0.051,0.104-0.08
			s0.069-0.055,0.104-0.088l14.604-12.996c-0.286-1.346-0.493-2.732-0.643-4.145L2.492,116.355z"/>
		<path fill="#B56CB5" d="M16.362,97.549L3.046,107.682c-0.197,0.149-0.389,0.332-0.566,0.54c-0.178,0.206-0.342,0.435-0.482,0.671
			c-0.142,0.235-0.267,0.481-0.355,0.72c-0.092,0.24-0.151,0.474-0.175,0.688l-0.136,1.371c-0.021,0.203-0.006,0.369,0.037,0.5
			c0.046,0.132,0.12,0.229,0.221,0.282c0.1,0.057,0.223,0.073,0.366,0.05c0.146-0.025,0.307-0.094,0.485-0.202
			c0.015-0.011,0.029-0.019,0.047-0.032c0.017-0.01,0.032-0.018,0.047-0.031c0.018-0.01,0.031-0.023,0.051-0.033
			c0.016-0.012,0.031-0.025,0.048-0.037l13.788-10.432C16.343,100.365,16.315,98.969,16.362,97.549z"/>
		<path fill="#B56CB5" d="M16.957,91.259l-12.46,8.023c-0.184,0.116-0.362,0.271-0.536,0.444c-0.172,0.176-0.335,0.373-0.481,0.584
			c-0.148,0.211-0.275,0.434-0.38,0.656c-0.102,0.219-0.18,0.438-0.222,0.648l-0.275,1.318c-0.042,0.211-0.046,0.391-0.016,0.531
			c0.03,0.14,0.095,0.242,0.188,0.307c0.092,0.061,0.215,0.083,0.361,0.059c0.147-0.022,0.316-0.092,0.5-0.213l12.847-8.173
			c0.019-0.232,0.025-0.461,0.042-0.692C16.627,93.6,16.778,92.434,16.957,91.259z"/>
		<path fill="#B56CB5" d="M6.695,91.205c-0.011,0.005-0.027,0.012-0.04,0.023c-0.013,0.008-0.027,0.015-0.041,0.021
			c-0.015,0.009-0.026,0.018-0.042,0.025c-0.012,0.008-0.026,0.018-0.039,0.026c-0.153,0.101-0.31,0.231-0.462,0.375
			c-0.148,0.149-0.293,0.315-0.427,0.491c-0.13,0.173-0.251,0.359-0.352,0.547c-0.1,0.188-0.181,0.377-0.235,0.557l-0.382,1.27
			c-0.061,0.201-0.084,0.375-0.074,0.52c0.009,0.143,0.05,0.254,0.12,0.33c0.073,0.076,0.171,0.113,0.298,0.111
			c0.125-0.001,0.275-0.045,0.448-0.135L17.3,89.181c0.258-1.366,0.577-2.748,0.938-4.137L6.695,91.205z"/>
		<path fill="#B56CB5" d="M9.512,83.474c-0.024,0.01-0.05,0.021-0.076,0.032c-0.024,0.014-0.048,0.028-0.075,0.043
			c-0.025,0.012-0.052,0.029-0.075,0.043c-0.027,0.014-0.055,0.033-0.078,0.05c-0.133,0.088-0.268,0.195-0.399,0.32
			c-0.132,0.123-0.254,0.259-0.371,0.406c-0.121,0.147-0.227,0.301-0.324,0.462c-0.094,0.155-0.177,0.316-0.238,0.474L7.4,86.514
			c-0.077,0.192-0.114,0.362-0.125,0.507c-0.007,0.145,0.013,0.263,0.067,0.347c0.049,0.088,0.129,0.142,0.235,0.156
			c0.108,0.017,0.239-0.005,0.396-0.067l10.819-4.462c0.392-1.338,0.829-2.685,1.313-4.039L9.512,83.474z"/>
		<path fill="#B56CB5" d="M12.844,76.099c-0.034,0.011-0.068,0.024-0.104,0.041c-0.035,0.014-0.07,0.03-0.108,0.048
			c-0.037,0.021-0.074,0.04-0.109,0.063c-0.034,0.02-0.072,0.044-0.11,0.069c-0.114,0.076-0.23,0.171-0.34,0.273
			c-0.114,0.102-0.224,0.217-0.328,0.335c-0.104,0.125-0.202,0.253-0.291,0.384c-0.089,0.133-0.167,0.27-0.231,0.403l-0.55,1.153
			c-0.088,0.18-0.142,0.348-0.167,0.492c-0.026,0.144-0.021,0.267,0.012,0.359c0.034,0.094,0.099,0.159,0.185,0.192
			c0.091,0.029,0.207,0.027,0.347-0.016l9.807-2.946c0.507-1.304,1.053-2.61,1.645-3.921L12.844,76.099z"/>
		<path fill="#B56CB5" d="M16.616,69.079c-0.041,0.006-0.083,0.021-0.129,0.036c-0.044,0.014-0.089,0.031-0.132,0.053
			c-0.047,0.023-0.095,0.045-0.143,0.075c-0.046,0.028-0.093,0.061-0.139,0.093c-0.101,0.064-0.2,0.145-0.295,0.229
			c-0.097,0.086-0.191,0.178-0.286,0.278c-0.089,0.102-0.176,0.211-0.257,0.318c-0.081,0.109-0.153,0.223-0.222,0.337l-0.612,1.093
			c-0.098,0.176-0.164,0.335-0.206,0.478c-0.039,0.143-0.048,0.267-0.032,0.365c0.02,0.102,0.063,0.178,0.137,0.221
			c0.074,0.043,0.174,0.059,0.297,0.036l8.815-1.617c0.606-1.261,1.251-2.524,1.938-3.788L16.616,69.079z"/>
		<path fill="#B56CB5" d="M20.769,62.399c-0.046,0.004-0.097,0.014-0.148,0.026c-0.05,0.02-0.103,0.036-0.159,0.061
			c-0.052,0.022-0.108,0.052-0.167,0.086c-0.059,0.031-0.115,0.069-0.173,0.11c-0.085,0.058-0.168,0.121-0.251,0.192
			c-0.081,0.073-0.164,0.148-0.242,0.231c-0.08,0.082-0.156,0.168-0.229,0.258c-0.072,0.089-0.139,0.183-0.201,0.278l-0.671,1.038
			c-0.106,0.164-0.185,0.322-0.236,0.462c-0.051,0.142-0.076,0.266-0.073,0.372c0.002,0.104,0.031,0.187,0.092,0.244
			c0.055,0.056,0.138,0.083,0.252,0.077l7.846-0.44c0.697-1.215,1.429-2.433,2.196-3.646L20.769,62.399z"/>
		<path fill="#B56CB5" d="M25.26,56.054c-0.052-0.004-0.103,0.001-0.163,0.016c-0.059,0.014-0.12,0.031-0.182,0.057
			c-0.063,0.027-0.132,0.059-0.199,0.099c-0.065,0.036-0.135,0.081-0.202,0.127c-0.071,0.052-0.142,0.102-0.211,0.163
			c-0.071,0.057-0.141,0.117-0.207,0.183c-0.063,0.068-0.132,0.136-0.192,0.209c-0.064,0.075-0.127,0.151-0.183,0.228l-0.719,0.981
			c-0.115,0.159-0.202,0.308-0.271,0.446c-0.063,0.14-0.1,0.267-0.107,0.375c-0.014,0.11,0.002,0.203,0.045,0.265
			c0.04,0.065,0.112,0.105,0.214,0.114l6.903,0.61c0.778-1.171,1.59-2.333,2.436-3.497L25.26,56.054z"/>
		<path fill="#B56CB5" d="M30.057,50.031c-0.055-0.012-0.11-0.012-0.176-0.002c-0.063,0.009-0.132,0.028-0.203,0.056
			c-0.072,0.024-0.15,0.063-0.229,0.104c-0.076,0.043-0.157,0.093-0.238,0.151c-0.056,0.04-0.113,0.084-0.17,0.129
			c-0.059,0.049-0.112,0.097-0.17,0.149c-0.054,0.052-0.111,0.105-0.164,0.163c-0.054,0.059-0.108,0.118-0.157,0.178l-0.765,0.935
			c-0.119,0.15-0.222,0.292-0.294,0.43c-0.075,0.138-0.124,0.265-0.149,0.375c-0.023,0.112-0.021,0.209,0.006,0.282
			c0.031,0.074,0.088,0.128,0.175,0.148l5.991,1.553c0.847-1.117,1.732-2.23,2.643-3.338L30.057,50.031z"/>
		<path fill="#B56CB5" d="M40.374,46.492l-5.241-2.173c-0.05-0.021-0.114-0.028-0.18-0.024c-0.071,0.003-0.145,0.021-0.229,0.048
			c-0.077,0.028-0.164,0.066-0.252,0.114c-0.091,0.045-0.183,0.105-0.275,0.171c-0.048,0.032-0.09,0.067-0.137,0.102
			c-0.043,0.036-0.088,0.074-0.138,0.112c-0.042,0.04-0.085,0.084-0.128,0.126c-0.044,0.043-0.088,0.088-0.131,0.134l-0.809,0.884
			c-0.128,0.142-0.235,0.283-0.319,0.416c-0.086,0.134-0.146,0.261-0.184,0.377c-0.039,0.113-0.05,0.216-0.033,0.297
			c0.017,0.083,0.06,0.146,0.131,0.18l5.097,2.413c0.051-0.059,0.096-0.118,0.147-0.176C38.569,48.473,39.467,47.477,40.374,46.492z
			"/>
		<path fill="#B56CB5" d="M44.874,41.884l-4.394-2.977c-0.05-0.035-0.108-0.049-0.183-0.05c-0.074-0.002-0.155,0.014-0.245,0.042
			c-0.089,0.024-0.186,0.067-0.287,0.119c-0.102,0.054-0.206,0.117-0.312,0.192c-0.031,0.025-0.066,0.052-0.102,0.076
			c-0.034,0.028-0.066,0.055-0.102,0.083c-0.034,0.031-0.066,0.061-0.103,0.09c-0.034,0.031-0.065,0.063-0.099,0.096l-0.851,0.836
			c-0.136,0.135-0.249,0.27-0.345,0.4c-0.094,0.131-0.169,0.263-0.217,0.376c-0.049,0.118-0.074,0.226-0.069,0.315
			c0.004,0.086,0.032,0.161,0.095,0.206l4.221,3.212C42.867,43.873,43.862,42.864,44.874,41.884z"/>
		<path fill="#B56CB5" d="M46.093,33.789c-0.047-0.044-0.105-0.069-0.182-0.076c-0.074-0.009-0.166,0-0.263,0.026
			c-0.099,0.027-0.209,0.07-0.323,0.126c-0.112,0.061-0.23,0.133-0.349,0.216c-0.021,0.019-0.046,0.035-0.07,0.054
			c-0.022,0.015-0.045,0.034-0.065,0.052c-0.025,0.021-0.049,0.04-0.072,0.058c-0.024,0.018-0.048,0.038-0.072,0.059l-0.888,0.792
			c-0.14,0.126-0.267,0.256-0.37,0.384c-0.104,0.131-0.189,0.259-0.248,0.377c-0.062,0.119-0.101,0.23-0.11,0.329
			c-0.009,0.093,0.007,0.173,0.057,0.233l3.342,3.956c1.041-0.971,2.095-1.918,3.162-2.84L46.093,33.789z"/>
		<path fill="#B56CB5" d="M51.963,28.971c-0.034-0.063-0.093-0.101-0.174-0.115c-0.078-0.015-0.172-0.012-0.278,0.014
			c-0.111,0.026-0.23,0.069-0.357,0.131c-0.129,0.063-0.263,0.146-0.397,0.244c-0.012,0.007-0.024,0.014-0.036,0.023
			c-0.012,0.012-0.022,0.021-0.036,0.027c-0.013,0.01-0.022,0.021-0.036,0.031c-0.01,0.007-0.021,0.018-0.035,0.026l-0.933,0.745
			c-0.146,0.118-0.28,0.244-0.395,0.372c-0.114,0.126-0.208,0.252-0.282,0.373c-0.073,0.124-0.124,0.238-0.146,0.341
			c-0.023,0.1-0.02,0.188,0.016,0.262l2.455,4.664c1.098-0.914,2.205-1.795,3.324-2.653L51.963,28.971z"/>
		<path fill="#B56CB5" d="M59.895,29.668L58.1,24.446c-0.024-0.076-0.081-0.126-0.161-0.152c-0.079-0.023-0.181-0.025-0.301-0.003
			c-0.117,0.024-0.253,0.073-0.396,0.14c-0.143,0.068-0.294,0.158-0.448,0.268l-0.974,0.702c-0.153,0.111-0.295,0.23-0.419,0.355
			c-0.125,0.121-0.233,0.251-0.321,0.373c-0.085,0.123-0.146,0.242-0.183,0.351c-0.036,0.107-0.048,0.204-0.024,0.286l1.545,5.353
			c0.788-0.579,1.577-1.153,2.372-1.705C59.153,30.157,59.525,29.918,59.895,29.668z"/>
		<path fill="#B56CB5" d="M64.512,20.235c-0.015-0.088-0.062-0.149-0.129-0.188c-0.071-0.037-0.167-0.048-0.282-0.039
			c-0.113,0.011-0.246,0.046-0.391,0.104c-0.146,0.057-0.301,0.137-0.462,0.241l-1.018,0.652c-0.011,0.009-0.027,0.017-0.039,0.028
			c-0.009,0.007-0.024,0.015-0.036,0.024c-0.012,0.008-0.026,0.016-0.036,0.026c-0.015,0.006-0.024,0.016-0.038,0.026
			c-0.144,0.1-0.273,0.211-0.392,0.323c-0.117,0.116-0.219,0.23-0.302,0.343c-0.087,0.115-0.152,0.228-0.196,0.333
			c-0.042,0.104-0.063,0.199-0.055,0.28l0.604,6.043c1.199-0.778,2.404-1.518,3.615-2.237L64.512,20.235z"/>
		<path fill="#B56CB5" d="M71.193,16.352c0.003-0.102-0.03-0.174-0.086-0.226c-0.064-0.05-0.148-0.076-0.259-0.076
			c-0.111,0-0.242,0.021-0.387,0.067c-0.148,0.048-0.307,0.118-0.476,0.214l-1.06,0.601c-0.028,0.013-0.054,0.031-0.08,0.046
			c-0.028,0.018-0.055,0.031-0.079,0.048c-0.028,0.018-0.054,0.035-0.077,0.052c-0.029,0.017-0.055,0.036-0.078,0.053
			c-0.132,0.092-0.254,0.192-0.359,0.298c-0.112,0.105-0.214,0.209-0.297,0.316c-0.082,0.105-0.15,0.211-0.195,0.308
			c-0.05,0.099-0.076,0.194-0.085,0.277l-0.399,6.742c1.245-0.702,2.497-1.366,3.75-2.008L71.193,16.352z"/>
		<path fill="#B56CB5" d="M78.166,12.82c0.02-0.109,0-0.197-0.047-0.261c-0.051-0.064-0.13-0.103-0.232-0.116
			c-0.104-0.018-0.234-0.003-0.378,0.031c-0.146,0.034-0.309,0.095-0.487,0.179l-1.106,0.547c-0.043,0.019-0.083,0.042-0.127,0.066
			c-0.042,0.021-0.082,0.048-0.123,0.071c-0.042,0.026-0.085,0.05-0.127,0.076c-0.039,0.028-0.078,0.055-0.115,0.082
			c-0.119,0.086-0.234,0.178-0.339,0.274c-0.104,0.092-0.196,0.192-0.278,0.289c-0.081,0.096-0.149,0.194-0.201,0.288
			c-0.054,0.092-0.089,0.184-0.105,0.266l-1.489,7.461c1.288-0.623,2.581-1.204,3.872-1.759L78.166,12.82z"/>
		<path fill="#B56CB5" d="M82.905,17.986l2.528-8.302c0.038-0.121,0.034-0.223,0-0.299c-0.036-0.08-0.106-0.13-0.205-0.159
			c-0.096-0.028-0.223-0.033-0.365-0.011c-0.148,0.024-0.319,0.073-0.501,0.147l-1.154,0.482c-0.059,0.024-0.12,0.052-0.18,0.08
			c-0.059,0.034-0.119,0.063-0.176,0.095c-0.059,0.033-0.113,0.068-0.171,0.104c-0.057,0.036-0.113,0.073-0.165,0.112
			c-0.111,0.078-0.215,0.161-0.313,0.245c-0.096,0.087-0.186,0.175-0.267,0.265c-0.076,0.088-0.144,0.178-0.199,0.265
			c-0.058,0.09-0.099,0.174-0.127,0.256l-2.69,8.195c1.065-0.426,2.131-0.833,3.196-1.211
			C82.379,18.156,82.642,18.077,82.905,17.986z"/>
		<path fill="#B56CB5" d="M92.999,6.995c0.057-0.134,0.071-0.247,0.053-0.339c-0.023-0.092-0.081-0.161-0.171-0.206
			c-0.089-0.043-0.209-0.063-0.354-0.052c-0.147,0.007-0.316,0.043-0.51,0.109l-1.205,0.408c-0.075,0.028-0.154,0.061-0.232,0.095
			c-0.08,0.033-0.16,0.071-0.235,0.112c-0.079,0.039-0.153,0.083-0.229,0.128c-0.076,0.049-0.147,0.095-0.219,0.146
			c-0.102,0.071-0.197,0.147-0.284,0.223c-0.092,0.078-0.177,0.158-0.254,0.237c-0.074,0.081-0.141,0.163-0.198,0.242
			c-0.057,0.08-0.104,0.161-0.138,0.238l-4.032,8.947c1.362-0.431,2.72-0.808,4.071-1.157L92.999,6.995z"/>
		<path fill="#B56CB5" d="M100.86,4.819c0.08-0.147,0.114-0.275,0.111-0.384c-0.006-0.105-0.049-0.19-0.127-0.253
			c-0.079-0.059-0.193-0.095-0.339-0.102c-0.146-0.008-0.319,0.013-0.521,0.067l-1.252,0.327c-0.095,0.026-0.197,0.059-0.297,0.095
			c-0.102,0.04-0.201,0.083-0.3,0.132c-0.101,0.047-0.199,0.102-0.295,0.157c-0.095,0.059-0.191,0.119-0.279,0.181
			c-0.094,0.064-0.182,0.128-0.261,0.197c-0.084,0.069-0.16,0.14-0.23,0.213C97,5.521,96.935,5.594,96.878,5.667
			c-0.058,0.072-0.107,0.145-0.148,0.216l-5.549,9.72c1.389-0.317,2.771-0.578,4.143-0.804L100.86,4.819z"/>
		<path fill="#B56CB5" d="M109.002,3.246c0.11-0.16,0.168-0.304,0.187-0.425c0.016-0.126-0.012-0.229-0.081-0.308
			c-0.064-0.08-0.171-0.133-0.313-0.16c-0.145-0.023-0.32-0.021-0.526,0.016l-1.3,0.233c-0.121,0.021-0.242,0.052-0.366,0.092
			c-0.124,0.043-0.251,0.089-0.377,0.146c-0.127,0.057-0.251,0.117-0.37,0.185c-0.122,0.073-0.24,0.146-0.354,0.225
			c-0.079,0.052-0.159,0.112-0.231,0.169c-0.075,0.063-0.144,0.122-0.209,0.186c-0.064,0.061-0.126,0.123-0.184,0.188
			c-0.056,0.064-0.107,0.128-0.151,0.19l-7.274,10.499c1.408-0.187,2.803-0.324,4.182-0.408L109.002,3.246z"/>
		<path fill="#B56CB5" d="M107.934,14.027l9.47-11.647c0.138-0.172,0.227-0.329,0.269-0.473c0.038-0.139,0.03-0.263-0.021-0.362
			c-0.051-0.099-0.147-0.175-0.282-0.221c-0.141-0.043-0.313-0.059-0.527-0.043l-1.344,0.117c-0.141,0.014-0.29,0.042-0.442,0.08
			c-0.15,0.04-0.309,0.093-0.465,0.156c-0.153,0.063-0.309,0.135-0.46,0.216c-0.151,0.08-0.299,0.171-0.438,0.265
			c-0.067,0.049-0.133,0.094-0.196,0.147c-0.063,0.049-0.126,0.099-0.186,0.152c-0.057,0.05-0.115,0.105-0.164,0.157
			c-0.054,0.056-0.102,0.109-0.147,0.163l-9.248,11.249c0.44-0.01,0.886-0.034,1.322-0.034
			C106.039,13.948,106.989,13.976,107.934,14.027z"/>
		<path fill="#B56CB5" d="M126.006,2.363c0.176-0.184,0.297-0.358,0.367-0.519c0.068-0.159,0.085-0.303,0.053-0.424
			c-0.032-0.123-0.113-0.22-0.241-0.289c-0.13-0.07-0.304-0.109-0.524-0.112L124.284,1c-0.165-0.003-0.341,0.015-0.523,0.05
			c-0.183,0.036-0.373,0.088-0.564,0.159c-0.19,0.067-0.383,0.148-0.568,0.244c-0.186,0.093-0.366,0.201-0.535,0.315
			c-0.054,0.037-0.11,0.076-0.161,0.116c-0.053,0.038-0.104,0.078-0.151,0.119c-0.049,0.038-0.099,0.082-0.144,0.125
			c-0.046,0.042-0.09,0.085-0.131,0.128l-11.497,11.936c1.394,0.136,2.755,0.34,4.094,0.597L126.006,2.363z"/>
		<path fill="#B56CB5" d="M134.729,3.358c0.217-0.192,0.372-0.38,0.478-0.56c0.105-0.178,0.153-0.347,0.145-0.492
			c-0.006-0.143-0.07-0.268-0.186-0.365c-0.118-0.097-0.287-0.165-0.511-0.194l-1.396-0.183c-0.185-0.026-0.387-0.022-0.605,0.007
			c-0.219,0.024-0.448,0.078-0.679,0.148c-0.235,0.069-0.465,0.161-0.695,0.27c-0.227,0.107-0.448,0.23-0.652,0.37
			c-0.039,0.026-0.079,0.052-0.117,0.081c-0.042,0.025-0.076,0.056-0.114,0.082c-0.038,0.031-0.076,0.059-0.11,0.089
			c-0.036,0.029-0.071,0.058-0.105,0.091l-14.061,12.521c1.353,0.331,2.67,0.723,3.957,1.185L134.729,3.358z"/>
		<path fill="#B56CB5" d="M125.685,19.012L143.437,5.56c0.263-0.197,0.47-0.401,0.615-0.597c0.143-0.195,0.228-0.385,0.251-0.557
			c0.022-0.171-0.015-0.325-0.113-0.451c-0.101-0.129-0.261-0.228-0.484-0.288l-1.398-0.382c-0.2-0.057-0.434-0.076-0.687-0.064
			c-0.256,0.014-0.53,0.057-0.809,0.128c-0.282,0.068-0.567,0.167-0.846,0.29c-0.276,0.12-0.549,0.265-0.795,0.429
			c-0.021,0.014-0.046,0.028-0.064,0.041c-0.024,0.018-0.046,0.031-0.067,0.047c-0.021,0.014-0.042,0.029-0.063,0.046
			c-0.02,0.014-0.041,0.031-0.063,0.045l-16.95,12.911c1.035,0.438,2.054,0.91,3.035,1.444
			C125.235,18.732,125.451,18.877,125.685,19.012z"/>
		<path fill="#B56CB5" d="M151.937,9.199c0.319-0.201,0.575-0.416,0.77-0.626c0.19-0.211,0.32-0.423,0.383-0.623
			c0.062-0.199,0.058-0.383-0.021-0.546c-0.071-0.159-0.217-0.294-0.436-0.393L151.27,6.39c-0.212-0.097-0.478-0.148-0.771-0.16
			c-0.294-0.011-0.622,0.019-0.957,0.084c-0.338,0.064-0.68,0.167-1.018,0.301c-0.336,0.133-0.667,0.299-0.969,0.495l0,0h-0.003
			l-20.126,12.973c1.199,0.797,2.327,1.659,3.375,2.582L151.937,9.199z"/>
		<path fill="#B56CB5" d="M135.175,27.494c0.007-0.004,0.013-0.004,0.019-0.008l24.764-12.967c0.033-0.018,0.063-0.031,0.092-0.049
			c0.031-0.015,0.058-0.032,0.086-0.048c0.028-0.013,0.058-0.032,0.083-0.051c0.03-0.014,0.058-0.03,0.082-0.047
			c0.312-0.192,0.567-0.397,0.77-0.607c0.197-0.209,0.341-0.422,0.419-0.626c0.079-0.204,0.097-0.403,0.046-0.581
			c-0.05-0.18-0.168-0.342-0.357-0.474l-1.282-0.9c-0.202-0.138-0.464-0.231-0.772-0.28c-0.3-0.048-0.648-0.059-1.014-0.021
			c-0.365,0.035-0.747,0.114-1.128,0.228c-0.382,0.114-0.761,0.271-1.116,0.463l-23.55,12.583
			C133.359,25.169,134.31,26.3,135.175,27.494z"/>
		<path fill="#B56CB5" d="M138.596,33.538c0.076-0.027,0.153-0.05,0.232-0.079l28.302-11.691c0.071-0.03,0.139-0.058,0.207-0.091
			c0.068-0.029,0.133-0.062,0.199-0.093c0.063-0.033,0.126-0.068,0.188-0.099c0.06-0.035,0.124-0.069,0.18-0.104
			c0.302-0.181,0.557-0.38,0.765-0.584c0.205-0.204,0.358-0.416,0.456-0.626c0.097-0.208,0.138-0.413,0.114-0.609
			c-0.021-0.197-0.106-0.38-0.261-0.542l-1.142-1.218c-0.176-0.189-0.432-0.335-0.742-0.434c-0.308-0.095-0.668-0.145-1.062-0.152
			c-0.388-0.005-0.808,0.038-1.231,0.125c-0.424,0.084-0.857,0.218-1.272,0.396l-27.042,11.546
			c-0.029,0.012-0.057,0.026-0.083,0.038c0.528,0.853,1.031,1.723,1.478,2.627C138.14,32.468,138.367,33.004,138.596,33.538z"/>
		<path fill="#B56CB5" d="M141.253,40.721l31.718-9.554c0.123-0.034,0.242-0.076,0.357-0.119c0.115-0.042,0.229-0.086,0.337-0.132
			c0.112-0.046,0.218-0.096,0.32-0.146c0.103-0.052,0.198-0.105,0.295-0.159c0.292-0.173,0.546-0.36,0.755-0.555
			c0.214-0.198,0.374-0.403,0.489-0.614c0.114-0.207,0.179-0.422,0.188-0.625c0.005-0.209-0.041-0.411-0.154-0.601l-0.912-1.575
			c-0.146-0.244-0.381-0.446-0.682-0.602c-0.305-0.156-0.67-0.263-1.085-0.321c-0.405-0.057-0.853-0.063-1.321-0.019
			c-0.469,0.047-0.952,0.142-1.43,0.294l-30.366,9.683c-0.097,0.031-0.192,0.063-0.284,0.1c-0.006,0.002-0.01,0.003-0.015,0.007
			c0.562,1.619,1.015,3.301,1.353,5.043C140.958,40.796,141.104,40.768,141.253,40.721z"/>
		<path fill="#B56CB5" d="M141.552,49.319c0.202-0.009,0.413-0.033,0.629-0.073l34.724-6.391c0.187-0.035,0.366-0.076,0.54-0.123
			c0.172-0.043,0.347-0.099,0.509-0.153c0.161-0.061,0.317-0.121,0.47-0.188c0.149-0.07,0.293-0.142,0.432-0.218
			c0.277-0.154,0.527-0.327,0.736-0.514c0.209-0.187,0.383-0.383,0.51-0.59c0.132-0.206,0.218-0.415,0.258-0.628
			c0.038-0.212,0.03-0.427-0.036-0.634l-0.59-1.957c-0.091-0.303-0.292-0.569-0.575-0.792c-0.282-0.219-0.646-0.395-1.063-0.518
			c-0.416-0.121-0.891-0.194-1.393-0.206c-0.499-0.012-1.029,0.035-1.568,0.146l-33.403,6.876c-0.142,0.029-0.277,0.064-0.41,0.1
			c-0.03,0.009-0.055,0.019-0.081,0.028C141.473,45.374,141.566,47.325,141.552,49.319z"/>
		<path fill="#B56CB5" d="M182.433,51.51c-0.027-0.365-0.172-0.7-0.419-0.992c-0.243-0.296-0.582-0.551-0.992-0.75
			c-0.41-0.201-0.891-0.35-1.411-0.438c-0.523-0.086-1.093-0.113-1.682-0.061l-35.816,3c-0.184,0.016-0.367,0.042-0.546,0.077
			c-0.046,0.01-0.089,0.024-0.136,0.036c-0.146,2.124-0.422,4.292-0.835,6.501c0.236,0.026,0.483,0.041,0.742,0.026l36.951-2.1
			c0.252-0.014,0.499-0.042,0.738-0.08c0.243-0.039,0.476-0.087,0.7-0.149c0.226-0.061,0.443-0.134,0.648-0.213
			c0.206-0.083,0.4-0.173,0.588-0.273c0.26-0.136,0.494-0.297,0.701-0.466c0.205-0.17,0.384-0.354,0.523-0.547
			c0.145-0.194,0.251-0.396,0.32-0.605c0.066-0.209,0.097-0.425,0.083-0.642L182.433,51.51z"/>
		<path fill="#B56CB5" d="M138.505,69.465l37.969,3.315c0.321,0.029,0.636,0.034,0.946,0.022c0.31-0.015,0.616-0.05,0.906-0.104
			c0.293-0.054,0.575-0.126,0.844-0.212c0.267-0.09,0.521-0.197,0.755-0.318c0.235-0.121,0.456-0.26,0.65-0.409
			c0.197-0.152,0.37-0.314,0.516-0.491c0.15-0.175,0.273-0.36,0.367-0.555c0.089-0.196,0.153-0.4,0.184-0.613l0.382-2.642
			c0.062-0.414-0.013-0.817-0.199-1.188c-0.185-0.371-0.481-0.706-0.862-0.998c-0.38-0.291-0.845-0.531-1.371-0.71
			c-0.525-0.174-1.112-0.288-1.736-0.321l-37.211-1.991c-0.227-0.01-0.452-0.007-0.678,0.016c-0.032,0.003-0.064,0.014-0.097,0.018
			c-0.567,2.312-1.286,4.661-2.139,7.027C137.974,69.383,138.228,69.438,138.505,69.465z"/>
		<path fill="#B56CB5" d="M132.843,80.281c0.222,0.114,0.458,0.212,0.724,0.28l37.393,9.656c0.377,0.1,0.754,0.163,1.128,0.193
			c0.373,0.031,0.743,0.031,1.105,0c0.359-0.03,0.707-0.092,1.039-0.182c0.33-0.09,0.644-0.205,0.937-0.349
			c0.203-0.103,0.394-0.213,0.574-0.341c0.176-0.125,0.342-0.265,0.485-0.412c0.146-0.148,0.274-0.309,0.38-0.48
			c0.11-0.169,0.201-0.35,0.268-0.539l1.004-2.871c0.157-0.444,0.171-0.906,0.066-1.346c-0.104-0.441-0.333-0.864-0.662-1.245
			c-0.323-0.385-0.746-0.727-1.252-1.009c-0.499-0.281-1.077-0.499-1.715-0.636l-37.181-7.972c-0.26-0.057-0.527-0.085-0.79-0.091
			c-0.009,0-0.018,0.003-0.026,0.003c-0.18,0.428-0.346,0.853-0.534,1.282C134.905,76.239,133.924,78.259,132.843,80.281z"/>
		<path fill="#B56CB5" d="M126.545,91.732l34.962,16.504c0.408,0.193,0.829,0.34,1.253,0.44c0.426,0.099,0.853,0.154,1.271,0.165
			c0.419,0.01,0.828-0.025,1.221-0.102c0.393-0.079,0.768-0.2,1.107-0.359c0.168-0.08,0.328-0.17,0.48-0.267
			c0.152-0.101,0.296-0.207,0.428-0.325c0.133-0.119,0.257-0.245,0.368-0.384c0.11-0.133,0.212-0.282,0.299-0.434l1.655-2.929
			c0.262-0.459,0.379-0.953,0.37-1.451c-0.009-0.494-0.142-0.99-0.393-1.467c-0.241-0.469-0.596-0.912-1.046-1.301
			c-0.446-0.387-0.984-0.723-1.602-0.979l-35.408-14.64c-0.253-0.102-0.515-0.165-0.773-0.215c-1.462,2.458-3.07,4.909-4.824,7.34
			C126.104,91.479,126.308,91.619,126.545,91.732z"/>
		<path fill="#B56CB5" d="M117.149,101.982c0.144,0.166,0.305,0.317,0.49,0.459l30.662,23.273c0.409,0.308,0.843,0.555,1.291,0.744
			c0.45,0.191,0.911,0.316,1.374,0.387c0.463,0.068,0.921,0.076,1.365,0.021c0.439-0.054,0.868-0.167,1.257-0.343
			c0.125-0.061,0.249-0.124,0.371-0.195c0.117-0.07,0.234-0.146,0.344-0.229c0.11-0.083,0.214-0.173,0.316-0.272
			c0.101-0.095,0.191-0.197,0.279-0.308l2.265-2.792c0.356-0.441,0.579-0.939,0.679-1.467c0.095-0.527,0.068-1.08-0.075-1.623
			c-0.146-0.541-0.402-1.076-0.765-1.566c-0.363-0.488-0.826-0.938-1.385-1.314l-31.773-21.468
			c-0.204-0.138-0.426-0.243-0.652-0.334c-0.803,1.019-1.627,2.032-2.481,3.043C119.552,99.363,118.36,100.681,117.149,101.982z"/>
		<path fill="#B56CB5" d="M107.208,112.149l24.791,29.272c0.364,0.435,0.776,0.796,1.22,1.086c0.443,0.293,0.917,0.51,1.398,0.65
			c0.479,0.141,0.971,0.205,1.45,0.184c0.476-0.022,0.944-0.123,1.373-0.311c0.084-0.037,0.166-0.076,0.249-0.121
			c0.083-0.042,0.161-0.091,0.24-0.141s0.154-0.104,0.23-0.158c0.074-0.059,0.146-0.121,0.218-0.183l2.742-2.454
			c0.434-0.388,0.751-0.867,0.95-1.387c0.201-0.528,0.282-1.103,0.255-1.69c-0.033-0.585-0.176-1.182-0.428-1.755
			c-0.255-0.571-0.612-1.117-1.08-1.609l-26.421-27.806c-0.149-0.155-0.315-0.287-0.486-0.407c-2.269,2.241-4.607,4.375-7.01,6.381
			C106.992,111.857,107.087,112.01,107.208,112.149z"/>
		<path fill="#B56CB5" d="M95.601,120.007c0.05,0.123,0.088,0.249,0.153,0.37l17.896,33.913c0.29,0.546,0.645,1.022,1.049,1.413
			c0.404,0.396,0.856,0.707,1.332,0.928c0.473,0.217,0.969,0.345,1.465,0.365c0.493,0.023,0.987-0.061,1.45-0.261
			c0.041-0.017,0.081-0.034,0.125-0.056c0.039-0.02,0.081-0.038,0.123-0.062c0.037-0.021,0.079-0.044,0.116-0.065
			c0.042-0.025,0.081-0.049,0.119-0.072l3.033-1.945c0.483-0.311,0.87-0.729,1.157-1.221c0.288-0.488,0.473-1.05,0.555-1.645
			c0.081-0.597,0.059-1.223-0.074-1.85c-0.129-0.622-0.368-1.238-0.718-1.819l-19.812-32.998c-0.089-0.146-0.192-0.276-0.299-0.402
			c-1.485,1.142-2.982,2.25-4.502,3.3C97.721,118.627,96.665,119.325,95.601,120.007z"/>
	</g>
	<g>
		<polygon fill="#231F20" points="220.604,147.446 224.652,147.446 224.652,142.996 234.484,142.996 234.484,139.785 
			224.652,139.785 224.652,137.414 235.086,137.414 235.086,134.186 220.604,134.186 		"/>
		<path fill="#231F20" d="M249.116,142.047c0,1.879-0.784,2.262-2.863,2.262h-2.299c-2.498,0-3.265-0.311-3.265-2.262v-7.861h-4.048
			v9.119c0,3.34,1.676,4.307,6.382,4.307h4.524c3.922,0,5.617-1.021,5.617-4.307v-9.119h-4.049V142.047z"/>
		<polygon fill="#231F20" points="254.905,137.434 260.449,137.434 260.449,147.446 264.5,147.446 264.5,137.434 270.045,137.434 
			270.045,134.186 254.905,134.186 		"/>
		<path fill="#231F20" d="M284.296,142.047c0,1.879-0.786,2.262-2.866,2.262h-2.297c-2.499,0-3.266-0.311-3.266-2.262v-7.861h-4.049
			v9.119c0,3.34,1.678,4.307,6.384,4.307h4.522c3.923,0,5.618-1.021,5.618-4.307v-9.119h-4.047V142.047z"/>
		<path fill="#231F20" d="M307.155,138.527c0-3.447-1.422-4.342-5.435-4.342h-10.653v13.261h4.068v-3.394h6.037
			c1.331,0,1.824,0.236,1.824,1.369v2.024h4.049v-2.718c0-1.35-0.712-2.189-2.098-2.518
			C306.608,141.81,307.155,140.716,307.155,138.527z M301.573,140.733h-6.438v-3.246h6.438c1.041,0,1.461,0.475,1.461,1.495
			C303.034,140.242,302.704,140.733,301.573,140.733z"/>
		<path fill="#231F20" d="M562.295,138.527c0-3.447-1.421-4.342-5.435-4.342h-10.653v13.261h4.069v-3.394h6.037
			c1.331,0,1.823,0.236,1.823,1.369v2.024h4.05v-2.718c0-1.35-0.712-2.189-2.099-2.518
			C561.748,141.81,562.295,140.716,562.295,138.527z M556.713,140.733h-6.437v-3.246h6.437c1.042,0,1.462,0.475,1.462,1.495
			C558.175,140.242,557.845,140.733,556.713,140.733z"/>
		<polygon fill="#231F20" points="313.763,142.211 323.595,142.211 323.595,139.42 313.763,139.42 313.763,137.414 324.196,137.414 
			324.196,134.186 309.714,134.186 309.714,147.446 324.359,147.446 324.359,144.235 313.763,144.235 		"/>
		<path fill="#231F20" d="M338.902,139.237l-6.656-0.163c-1.112-0.037-1.587-0.273-1.587-1.095c0-0.931,0.657-1.04,1.916-1.04h4.669
			c0.894,0,1.331,0.438,1.331,1.314c0,0.019,0,0.036,0,0.053h3.903c0.017-0.254,0.037-0.51,0.037-0.728
			c0-2.554-1.315-3.559-4.323-3.559h-6.183c-2.136,0-3.593,0.091-4.562,1.022c-0.675,0.676-0.93,1.66-0.93,3.102
			c0,3.045,0.984,3.867,4.067,3.958l6.365,0.2c1.315,0.037,1.951,0.183,1.951,1.148c0,0.803-0.419,1.095-1.384,1.095h-5.089
			c-1.406,0-1.898-0.182-1.898-1.276c0-0.073,0-0.146,0-0.238h-3.995c-0.035,0.548-0.055,0.913-0.055,1.059
			c0,2.899,1.46,3.521,5.563,3.521h5.4c1.932,0,3.281-0.111,4.103-0.639c1.186-0.768,1.496-1.752,1.496-3.431
			C343.044,140.442,341.949,139.312,338.902,139.237z"/>
		<path fill="#231F20" d="M367.299,142.431v-2.171h-3.34c0.037,0.236,0.056,0.456,0.056,0.639c0,0.328-0.056,0.674-0.146,1.021
			l-6.768-3.539c-0.328-0.182-0.511-0.456-0.511-0.802c0-0.493,0.364-0.784,1.058-0.784h3.411c1.223,0,1.661,0.291,1.661,1.33
			c0,0.11-0.02,0.219-0.02,0.348h3.393v-1.641c0-2.463-1.55-2.828-5.034-2.828h-3.813c-2.954,0-4.304,0.145-4.304,2.443v1.478
			c0,0.894,0.312,1.387,1.204,1.915c-1.842,0.092-2.735,0.931-2.735,2.591v1.714c0,2.627,1.696,3.447,5.69,3.447h4.598
			c2.041,0,3.392-0.109,4.376-1.313l2.28,1.221l1.15-2.535l-2.427-1.349C367.243,143.051,367.299,142.631,367.299,142.431z
			 M357.102,144.729c-1.531,0-2.061-0.256-2.061-1.313v-0.877c0-0.766,0.437-1.221,1.129-1.221c0.184,0,0.402,0.055,0.604,0.163
			l6.109,3.247H357.102z"/>
		<path fill="#231F20" d="M392.811,134.951c-1.056-0.803-2.734-0.931-5.16-0.931h-4.761c-2.426,0-4.065,0.128-5.142,0.931
			c-1.098,0.821-1.442,2.135-1.442,4.178v3.611c0,1.915,0.364,3.137,1.442,3.94c1.13,0.839,2.788,0.931,5.159,0.931h4.743
			c2.406,0,4.067-0.111,5.16-0.931c1.023-0.784,1.425-2.044,1.425-4.013v-3.703C394.235,136.994,393.815,135.719,392.811,134.951z
			 M390.131,141.756c0,2.151-0.984,2.533-3.557,2.533h-2.571c-2.574,0-3.575-0.399-3.575-2.497v-1.844
			c0-2.243,0.929-2.606,3.556-2.606h2.591c2.572,0,3.557,0.383,3.557,2.535V141.756z"/>
		<path fill="#231F20" d="M410.399,134.733c-0.839-0.438-1.969-0.548-3.518-0.548h-10.179v13.261h4.067v-3.302h7.568
			c2.938,0,3.977-1.422,3.977-4.979C412.315,136.866,411.823,135.481,410.399,134.733z M406.735,140.844h-5.965v-3.356h5.965
			c1.039,0,1.459,0.492,1.459,1.55C408.194,140.334,407.865,140.844,406.735,140.844z"/>
		<polygon fill="#231F20" points="413.542,137.434 419.089,137.434 419.089,147.446 423.138,147.446 423.138,137.434 
			428.683,137.434 428.683,134.186 413.542,134.186 		"/>
		<rect x="430.639" y="134.186" fill="#231F20" width="4.05" height="13.261"/>
		<path fill="#231F20" d="M453.77,134.951c-1.057-0.803-2.736-0.931-5.162-0.931h-4.761c-2.425,0-4.065,0.128-5.143,0.931
			c-1.096,0.821-1.441,2.135-1.441,4.178v3.611c0,1.915,0.364,3.137,1.441,3.94c1.132,0.839,2.789,0.931,5.161,0.931h4.742
			c2.406,0,4.067-0.111,5.162-0.931c1.021-0.784,1.422-2.044,1.422-4.013v-3.703C455.191,136.994,454.773,135.719,453.77,134.951z
			 M451.088,141.756c0,2.151-0.984,2.533-3.557,2.533h-2.569c-2.574,0-3.577-0.399-3.577-2.497v-1.844
			c0-2.243,0.93-2.606,3.557-2.606h2.59c2.572,0,3.557,0.383,3.557,2.535V141.756z"/>
		<path fill="#231F20" d="M542.123,134.951c-1.057-0.803-2.736-0.931-5.162-0.931h-4.76c-2.426,0-4.067,0.128-5.145,0.931
			c-1.095,0.821-1.439,2.135-1.439,4.178v3.611c0,1.915,0.363,3.137,1.439,3.94c1.132,0.839,2.789,0.931,5.162,0.931h4.742
			c2.407,0,4.067-0.111,5.162-0.931c1.021-0.784,1.422-2.044,1.422-4.013v-3.703C543.545,136.994,543.127,135.719,542.123,134.951z
			 M539.441,141.756c0,2.151-0.984,2.533-3.556,2.533h-2.571c-2.573,0-3.576-0.399-3.576-2.497v-1.844
			c0-2.243,0.93-2.606,3.556-2.606h2.592c2.571,0,3.556,0.383,3.556,2.535V141.756z"/>
		<polygon fill="#231F20" points="471.54,143.907 463.643,134.186 457.642,134.186 457.642,147.446 461.69,147.446 461.69,137.797 
			469.644,147.446 475.571,147.446 475.571,134.186 471.54,134.186 		"/>
		<path fill="#231F20" d="M490.406,139.237l-6.657-0.163c-1.112-0.037-1.586-0.273-1.586-1.095c0-0.931,0.656-1.04,1.914-1.04h4.67
			c0.893,0,1.331,0.438,1.331,1.314c0,0.019,0,0.036,0,0.053h3.904c0.017-0.254,0.035-0.51,0.035-0.728
			c0-2.554-1.314-3.559-4.322-3.559h-6.184c-2.134,0-3.593,0.091-4.56,1.022c-0.676,0.676-0.93,1.66-0.93,3.102
			c0,3.045,0.983,3.867,4.065,3.958l6.366,0.2c1.314,0.037,1.952,0.183,1.952,1.148c0,0.803-0.421,1.095-1.386,1.095h-5.089
			c-1.405,0-1.897-0.182-1.897-1.276c0-0.073,0-0.146,0-0.238h-3.995c-0.034,0.548-0.055,0.913-0.055,1.059
			c0,2.899,1.459,3.521,5.563,3.521h5.401c1.933,0,3.281-0.111,4.104-0.639c1.184-0.768,1.495-1.752,1.495-3.431
			C494.547,140.442,493.452,139.312,490.406,139.237z"/>
		<polygon fill="#231F20" points="517.172,143.877 517.136,143.877 513.748,134.082 509.955,134.082 511.154,137.261 
			508.867,143.877 508.83,143.877 505.35,134.082 501.356,134.082 506.325,147.411 511.021,147.411 512.938,141.99 514.982,147.411 
			519.676,147.411 524.302,134.082 520.307,134.082 		"/>
		<polygon fill="#231F20" points="569.26,134.082 565.173,134.082 565.173,147.411 578.444,147.411 578.444,143.987 569.26,143.987 
					"/>
		<path fill="#231F20" d="M592.652,134.082h-12.334v13.329h12.334c4.086,0,5.522-1.343,5.522-4.64v-4.049
			C598.175,135.427,596.738,134.082,592.652,134.082z M594.087,141.594c0,1.896-0.679,2.394-2.431,2.394h-7.252v-6.591h7.252
			c1.752,0,2.431,0.497,2.431,2.393V141.594z"/>
	</g>
</g>
</svg>
